<svg
  xmlns="http://www.w3.org/2000/svg"
  xmlns:xlink="http://www.w3.org/1999/xlink"
  viewBox="0 0 1128 552"
>
  <defs>
    <svg
      id="three-dots"
      width="24"
      height="25"
      viewBox="0 0 24 25"
      fill="none"
      xmlns="http://www.w3.org/2000/svg"
    >
      <path
        fill-rule="evenodd"
        clip-rule="evenodd"
        d="M13.5 6C13.5 6.82843 12.8284 7.5 12 7.5C11.1716 7.5 10.5 6.82843 10.5 6C10.5 5.17157 11.1716 4.5 12 4.5C12.8284 4.5 13.5 5.17157 13.5 6ZM13.5 12.5C13.5 13.3284 12.8284 14 12 14C11.1716 14 10.5 13.3284 10.5 12.5C10.5 11.6716 11.1716 11 12 11C12.8284 11 13.5 11.6716 13.5 12.5ZM12 20.5C12.8284 20.5 13.5 19.8284 13.5 19C13.5 18.1716 12.8284 17.5 12 17.5C11.1716 17.5 10.5 18.1716 10.5 19C10.5 19.8284 11.1716 20.5 12 20.5Z"
        fill="white"
      />
    </svg>

    <svg
      id="launch"
      width="18"
      height="18"
      viewBox="0 0 18 18"
      fill="none"
      xmlns="http://www.w3.org/2000/svg"
    >
      <path
        d="M5 13L13 5M13 5L6.1575 5M13 5L13 11.8362"
        stroke="#BEBEBE"
        stroke-width="2"
        stroke-linecap="round"
      />
    </svg>

    <svg
      id="apps"
      width="18"
      height="18"
      viewBox="0 0 18 18"
      fill="none"
      xmlns="http://www.w3.org/2000/svg"
    >
      <g clip-path="url(#clip0_4_828)">
        <path
          fill-rule="evenodd"
          clip-rule="evenodd"
          d="M3.5 0.75C1.98122 0.75 0.75 1.98122 0.75 3.5V5.5C0.75 7.01878 1.98122 8.25 3.5 8.25H5.5C7.01878 8.25 8.25 7.01878 8.25 5.5V3.5C8.25 1.98122 7.01878 0.75 5.5 0.75H3.5ZM2.25 3.5C2.25 2.80964 2.80964 2.25 3.5 2.25H5.5C6.19036 2.25 6.75 2.80964 6.75 3.5V5.5C6.75 6.19036 6.19036 6.75 5.5 6.75H3.5C2.80964 6.75 2.25 6.19036 2.25 5.5V3.5ZM3.5 9.75C1.98122 9.75 0.75 10.9812 0.75 12.5V14.5C0.75 16.0188 1.98122 17.25 3.5 17.25H5.5C7.01878 17.25 8.25 16.0188 8.25 14.5V12.5C8.25 10.9812 7.01878 9.75 5.5 9.75H3.5ZM2.25 12.5C2.25 11.8096 2.80964 11.25 3.5 11.25H5.5C6.19036 11.25 6.75 11.8096 6.75 12.5V14.5C6.75 15.1904 6.19036 15.75 5.5 15.75H3.5C2.80964 15.75 2.25 15.1904 2.25 14.5V12.5ZM9.75 12.5C9.75 10.9812 10.9812 9.75 12.5 9.75H14.5C16.0188 9.75 17.25 10.9812 17.25 12.5V14.5C17.25 16.0188 16.0188 17.25 14.5 17.25H12.5C10.9812 17.25 9.75 16.0188 9.75 14.5V12.5ZM12.5 11.25C11.8096 11.25 11.25 11.8096 11.25 12.5V14.5C11.25 15.1904 11.8096 15.75 12.5 15.75H14.5C15.1904 15.75 15.75 15.1904 15.75 14.5V12.5C15.75 11.8096 15.1904 11.25 14.5 11.25H12.5ZM12.5 0.75C10.9812 0.75 9.75 1.98122 9.75 3.5V5.5C9.75 7.01878 10.9812 8.25 12.5 8.25H14.5C16.0188 8.25 17.25 7.01878 17.25 5.5V3.5C17.25 1.98122 16.0188 0.75 14.5 0.75H12.5ZM11.25 3.5C11.25 2.80964 11.8096 2.25 12.5 2.25H14.5C15.1904 2.25 15.75 2.80964 15.75 3.5V5.5C15.75 6.19036 15.1904 6.75 14.5 6.75H12.5C11.8096 6.75 11.25 6.19036 11.25 5.5V3.5Z"
          fill="white"
        />
      </g>
      <defs>
        <clipPath id="clip0_4_828">
          <rect width="18" height="18" fill="white" />
        </clipPath>
      </defs>
    </svg>

    <svg
      id="settings"
      width="18"
      height="18"
      viewBox="0 0 18 18"
      fill="none"
      xmlns="http://www.w3.org/2000/svg"
    >
      <path
        fill-rule="evenodd"
        clip-rule="evenodd"
        d="M10.375 0.927817C9.52413 0.436577 8.47583 0.436577 7.62498 0.927817L2.69678 3.77312C1.84592 4.26436 1.32178 5.17221 1.32178 6.15469V11.8453C1.32178 12.8278 1.84592 13.7356 2.69678 14.2269L7.62498 17.0722C8.47583 17.5634 9.52413 17.5634 10.375 17.0722L15.3032 14.2269C16.154 13.7356 16.6782 12.8278 16.6782 11.8453V6.15469C16.6782 5.17221 16.154 4.26436 15.3032 3.77312L10.375 0.927817ZM8.37498 2.22686C8.76173 2.00356 9.23823 2.00356 9.62498 2.22686L14.5532 5.07215C14.9399 5.29545 15.1782 5.7081 15.1782 6.15469V11.8453C15.1782 12.2919 14.9399 12.7045 14.5532 12.9278L9.62498 15.7731C9.23823 15.9964 8.76173 15.9964 8.37498 15.7731L3.44678 12.9278C3.06003 12.7045 2.82178 12.2919 2.82178 11.8453V6.15469C2.82178 5.7081 3.06003 5.29545 3.44678 5.07215L8.37498 2.22686ZM10.5 8.99999C10.5 9.82841 9.82841 10.5 8.99998 10.5C8.17155 10.5 7.49998 9.82841 7.49998 8.99999C7.49998 8.17156 8.17155 7.49999 8.99998 7.49999C9.82841 7.49999 10.5 8.17156 10.5 8.99999ZM12 8.99999C12 10.6568 10.6568 12 8.99998 12C7.34313 12 5.99998 10.6568 5.99998 8.99999C5.99998 7.34313 7.34313 5.99999 8.99998 5.99999C10.6568 5.99999 12 7.34313 12 8.99999Z"
        fill="white"
      />
    </svg>


    <svg
      id="star"
      viewBox="0 0 12 13"
      fill="none"
      xmlns="http://www.w3.org/2000/svg"
    >
      <path
        d="M12 6.638c-.105.138-.252.203-.406.26-.738.293-1.484.586-2.223.878-1.006.39-1.712 1.09-2.11 2.09-.3.756-.592 1.504-.892 2.26-.073.17-.13.366-.365.374-.26.008-.316-.195-.39-.382-.291-.74-.592-1.488-.876-2.228-.397-1.008-1.087-1.715-2.093-2.106-.754-.3-1.5-.593-2.255-.902-.187-.073-.398-.13-.39-.39.008-.236.211-.293.382-.358.738-.293 1.476-.593 2.223-.886 1.03-.398 1.736-1.122 2.142-2.154q.428-1.098.868-2.195c.073-.187.13-.407.381-.399.252 0 .308.22.381.407.292.731.585 1.463.869 2.195q.596 1.549 2.141 2.146c.73.285 1.46.577 2.191.862.154.057.3.122.422.236z"
        fill="url(#a)"
      />
      <defs>
        <linearGradient
          id="a"
          x1="6"
          y1=".5"
          x2="6"
          y2="12.5"
          gradientUnits="userSpaceOnUse"
        >
          <stop stop-color="#fff" />
          <stop offset="1" stop-color="#FFFFFF" />
        </linearGradient>
      </defs>
    </svg>

<svg id="expand" width="24" height="18" viewBox="0 0 24 18" fill="none" xmlns="http://www.w3.org/2000/svg">
<path fill-rule="evenodd" clip-rule="evenodd" d="M10 2H20.6667C21.403 2 22 2.59695 22 3.33333V14.6667C22 15.403 21.403 16 20.6667 16H10L10 2ZM8 0H10H20.6667C22.5076 0 24 1.49238 24 3.33333V14.6667C24 16.5076 22.5076 18 20.6667 18H10H8H3.33333C1.49238 18 0 16.5076 0 14.6667V3.33333C0 1.49238 1.49238 0 3.33333 0H8ZM8 16H3.33333C2.59695 16 2 15.403 2 14.6667V3.33333C2 2.59695 2.59695 2 3.33333 2H8L8 16Z" fill="#E9E9E9"/>
</svg>


<svg id="chat-send" width="14" height="14" viewBox="0 0 14 14" fill="none" xmlns="http://www.w3.org/2000/svg">
<path d="M13.517 7.78202C13.6622 7.70927 13.7842 7.59757 13.8695 7.45941C13.9548 7.32126 14 7.1621 14 6.99973C14 6.83737 13.9548 6.67821 13.8695 6.54005C13.7842 6.4019 13.6622 6.2902 13.517 6.21745L1.26652 0.0921873C1.11462 0.0161849 0.943888 -0.0139681 0.775147 0.00540635C0.606407 0.0247808 0.446953 0.0928455 0.316236 0.201297C0.185518 0.309749 0.0891905 0.453899 0.0390005 0.616163C-0.0111885 0.778427 -0.0130692 0.951791 0.0335884 1.11511L1.28402 5.49029C1.33632 5.67315 1.44678 5.83399 1.59867 5.94846C1.75056 6.06293 1.93561 6.1248 2.1258 6.12469L6.1256 6.12469C6.35767 6.12469 6.58024 6.21689 6.74434 6.38099C6.90844 6.54509 7.00063 6.76766 7.00063 6.99973C7.00063 7.23181 6.90844 7.45437 6.74434 7.61848C6.58024 7.78258 6.35767 7.87477 6.1256 7.87477L2.1258 7.87477C1.93561 7.87466 1.75056 7.93653 1.59867 8.051C1.44678 8.16547 1.33632 8.32631 1.28402 8.50917L0.0344624 12.8844C-0.0122877 13.0476 -0.0105196 13.221 0.0395511 13.3832C0.0896219 13.5455 0.185831 13.6897 0.316447 13.7982C0.447062 13.9068 0.606437 13.975 0.775136 13.9945C0.943837 14.014 1.11457 13.984 1.26652 13.9082L13.517 7.78289L13.517 7.78202Z" fill="#8E8E9E"/>
</svg>



  </defs>
</svg>
