<svg
  xmlns="http://www.w3.org/2000/svg"
  xmlns:xlink="http://www.w3.org/1999/xlink"
  viewBox="0 0 1128 552"
>
  <defs>
    <svg
      id="three-dots"
      width="24"
      height="25"
      viewBox="0 0 24 25"
      fill="none"
      xmlns="http://www.w3.org/2000/svg"
    >
      <path
        fill-rule="evenodd"
        clip-rule="evenodd"
        d="M13.5 6C13.5 6.82843 12.8284 7.5 12 7.5C11.1716 7.5 10.5 6.82843 10.5 6C10.5 5.17157 11.1716 4.5 12 4.5C12.8284 4.5 13.5 5.17157 13.5 6ZM13.5 12.5C13.5 13.3284 12.8284 14 12 14C11.1716 14 10.5 13.3284 10.5 12.5C10.5 11.6716 11.1716 11 12 11C12.8284 11 13.5 11.6716 13.5 12.5ZM12 20.5C12.8284 20.5 13.5 19.8284 13.5 19C13.5 18.1716 12.8284 17.5 12 17.5C11.1716 17.5 10.5 18.1716 10.5 19C10.5 19.8284 11.1716 20.5 12 20.5Z"
        fill="white"
      />
    </svg>

    <svg
      id="launch"
      width="18"
      height="18"
      viewBox="0 0 18 18"
      fill="none"
      xmlns="http://www.w3.org/2000/svg"
    >
      <path
        d="M5 13L13 5M13 5L6.1575 5M13 5L13 11.8362"
        stroke="#BEBEBE"
        stroke-width="2"
        stroke-linecap="round"
      />
    </svg>

    <svg
      id="apps"
      width="18"
      height="18"
      viewBox="0 0 18 18"
      fill="none"
      xmlns="http://www.w3.org/2000/svg"
    >
      <g clip-path="url(#clip0_4_828)">
        <path
          fill-rule="evenodd"
          clip-rule="evenodd"
          d="M3.5 0.75C1.98122 0.75 0.75 1.98122 0.75 3.5V5.5C0.75 7.01878 1.98122 8.25 3.5 8.25H5.5C7.01878 8.25 8.25 7.01878 8.25 5.5V3.5C8.25 1.98122 7.01878 0.75 5.5 0.75H3.5ZM2.25 3.5C2.25 2.80964 2.80964 2.25 3.5 2.25H5.5C6.19036 2.25 6.75 2.80964 6.75 3.5V5.5C6.75 6.19036 6.19036 6.75 5.5 6.75H3.5C2.80964 6.75 2.25 6.19036 2.25 5.5V3.5ZM3.5 9.75C1.98122 9.75 0.75 10.9812 0.75 12.5V14.5C0.75 16.0188 1.98122 17.25 3.5 17.25H5.5C7.01878 17.25 8.25 16.0188 8.25 14.5V12.5C8.25 10.9812 7.01878 9.75 5.5 9.75H3.5ZM2.25 12.5C2.25 11.8096 2.80964 11.25 3.5 11.25H5.5C6.19036 11.25 6.75 11.8096 6.75 12.5V14.5C6.75 15.1904 6.19036 15.75 5.5 15.75H3.5C2.80964 15.75 2.25 15.1904 2.25 14.5V12.5ZM9.75 12.5C9.75 10.9812 10.9812 9.75 12.5 9.75H14.5C16.0188 9.75 17.25 10.9812 17.25 12.5V14.5C17.25 16.0188 16.0188 17.25 14.5 17.25H12.5C10.9812 17.25 9.75 16.0188 9.75 14.5V12.5ZM12.5 11.25C11.8096 11.25 11.25 11.8096 11.25 12.5V14.5C11.25 15.1904 11.8096 15.75 12.5 15.75H14.5C15.1904 15.75 15.75 15.1904 15.75 14.5V12.5C15.75 11.8096 15.1904 11.25 14.5 11.25H12.5ZM12.5 0.75C10.9812 0.75 9.75 1.98122 9.75 3.5V5.5C9.75 7.01878 10.9812 8.25 12.5 8.25H14.5C16.0188 8.25 17.25 7.01878 17.25 5.5V3.5C17.25 1.98122 16.0188 0.75 14.5 0.75H12.5ZM11.25 3.5C11.25 2.80964 11.8096 2.25 12.5 2.25H14.5C15.1904 2.25 15.75 2.80964 15.75 3.5V5.5C15.75 6.19036 15.1904 6.75 14.5 6.75H12.5C11.8096 6.75 11.25 6.19036 11.25 5.5V3.5Z"
          fill="white"
        />
      </g>
      <defs>
        <clipPath id="clip0_4_828">
          <rect width="18" height="18" fill="white" />
        </clipPath>
      </defs>
    </svg>

    <svg
      id="settings"
      width="18"
      height="18"
      viewBox="0 0 18 18"
      fill="none"
      xmlns="http://www.w3.org/2000/svg"
    >
      <path
        fill-rule="evenodd"
        clip-rule="evenodd"
        d="M10.375 0.927817C9.52413 0.436577 8.47583 0.436577 7.62498 0.927817L2.69678 3.77312C1.84592 4.26436 1.32178 5.17221 1.32178 6.15469V11.8453C1.32178 12.8278 1.84592 13.7356 2.69678 14.2269L7.62498 17.0722C8.47583 17.5634 9.52413 17.5634 10.375 17.0722L15.3032 14.2269C16.154 13.7356 16.6782 12.8278 16.6782 11.8453V6.15469C16.6782 5.17221 16.154 4.26436 15.3032 3.77312L10.375 0.927817ZM8.37498 2.22686C8.76173 2.00356 9.23823 2.00356 9.62498 2.22686L14.5532 5.07215C14.9399 5.29545 15.1782 5.7081 15.1782 6.15469V11.8453C15.1782 12.2919 14.9399 12.7045 14.5532 12.9278L9.62498 15.7731C9.23823 15.9964 8.76173 15.9964 8.37498 15.7731L3.44678 12.9278C3.06003 12.7045 2.82178 12.2919 2.82178 11.8453V6.15469C2.82178 5.7081 3.06003 5.29545 3.44678 5.07215L8.37498 2.22686ZM10.5 8.99999C10.5 9.82841 9.82841 10.5 8.99998 10.5C8.17155 10.5 7.49998 9.82841 7.49998 8.99999C7.49998 8.17156 8.17155 7.49999 8.99998 7.49999C9.82841 7.49999 10.5 8.17156 10.5 8.99999ZM12 8.99999C12 10.6568 10.6568 12 8.99998 12C7.34313 12 5.99998 10.6568 5.99998 8.99999C5.99998 7.34313 7.34313 5.99999 8.99998 5.99999C10.6568 5.99999 12 7.34313 12 8.99999Z"
        fill="white"
      />
    </svg>
  </defs>
</svg>
